<svg width="443" height="223" viewBox="0 0 443 223" fill="none" xmlns="http://www.w3.org/2000/svg">
<g clip-path="url(#clip0_213_5721)">
<g opacity="0.2">
<path d="M66.0055 48.8807C59.7238 46.0847 52.3791 44.735 43.9714 44.735H1.93281C0.869764 44.735 0 45.6027 0 46.6632V133.916C0 134.976 0.869764 135.844 1.93281 135.844H28.8955C29.9586 135.844 30.8283 134.976 30.8283 133.916V115.308C30.8283 114.248 31.6981 113.38 32.7611 113.38H44.0681C52.4758 113.38 59.8205 112.03 66.1021 109.234C72.3837 106.438 77.2157 102.486 80.5982 97.2793C83.9806 92.0731 85.7201 85.9991 85.7201 79.0575C85.7201 72.1159 83.9806 66.0419 80.5982 60.8357C77.0225 55.6295 72.1904 51.6766 66.0055 48.8807Z" fill="url(#paint0_linear_213_5721)"/>
<path d="M273.976 89.5664C272.623 88.8915 272.526 87.1561 273.782 86.2884C276.392 84.553 278.518 82.4319 280.064 79.9252C282.19 76.5508 283.253 72.6943 283.253 68.4522C283.253 61.2214 280.161 55.5331 273.976 51.1946C267.791 46.856 258.61 44.735 246.433 44.735H199.563C198.5 44.735 197.63 45.6027 197.63 46.6632V133.916C197.63 134.976 198.5 135.844 199.563 135.844H249.043C261.606 135.844 271.077 133.626 277.745 129.288C284.316 124.949 287.699 118.779 287.699 110.777C287.699 105.378 286.249 100.847 283.253 96.9901C280.837 93.9049 277.841 91.4946 273.976 89.5664Z" fill="url(#paint1_linear_213_5721)"/>
<path d="M329.254 113.38H298.522V133.819C298.522 134.88 299.392 135.748 300.455 135.748H368.683C369.747 135.748 370.616 134.88 370.616 133.819V115.212C370.616 114.151 369.747 113.284 368.683 113.284H329.254V113.38Z" fill="url(#paint2_linear_213_5721)"/>
<path d="M377.091 46.5668V133.819C377.091 134.88 377.961 135.748 379.024 135.748H405.89C406.953 135.748 407.823 134.88 407.823 133.819V46.5668C407.823 45.5063 406.953 44.6386 405.89 44.6386H378.927C377.864 44.735 377.091 45.5063 377.091 46.5668Z" fill="url(#paint3_linear_213_5721)"/>
<path d="M95.8674 44.735C94.8043 44.735 93.9346 45.6027 93.9346 46.6632V94.869C93.9346 108.463 97.8002 119.068 105.628 126.588C113.456 134.109 124.376 137.869 138.389 137.869C152.402 137.869 163.322 134.109 171.15 126.588C178.978 119.068 182.844 108.463 182.844 94.869V46.6632C182.844 45.6027 181.974 44.735 180.911 44.735H95.8674Z" fill="url(#paint4_linear_213_5721)"/>
</g>
<g opacity="0.4">
<path d="M66.0055 26.5132C59.7238 23.7172 52.3791 22.3675 43.9714 22.3675H1.93281C0.869764 22.3675 0 23.2352 0 24.2957V111.548C0 112.609 0.869764 113.476 1.93281 113.476H28.8955C29.9586 113.476 30.8283 112.609 30.8283 111.548V92.9408C30.8283 91.8802 31.6981 91.0125 32.7611 91.0125H44.0681C52.4758 91.0125 59.8205 89.6628 66.1021 86.8668C72.3837 84.0709 77.2157 80.118 80.5982 74.9118C83.9806 69.7056 85.7201 63.6316 85.7201 56.69C85.7201 49.7484 83.9806 43.6744 80.5982 38.4682C77.0225 33.262 72.1904 29.3091 66.0055 26.5132Z" fill="url(#paint5_linear_213_5721)"/>
<path d="M273.976 67.1989C272.623 66.524 272.526 64.7886 273.782 63.9209C276.392 62.1855 278.518 60.0644 280.064 57.5577C282.19 54.1833 283.253 50.3268 283.253 46.0847C283.253 38.8539 280.161 33.1656 273.976 28.8271C267.791 24.4885 258.61 22.3675 246.433 22.3675H199.563C198.5 22.3675 197.63 23.2352 197.63 24.2957V111.548C197.63 112.609 198.5 113.476 199.563 113.476H249.043C261.606 113.476 271.077 111.259 277.745 106.92C284.316 102.582 287.699 96.4116 287.699 88.4094C287.699 83.0104 286.249 78.479 283.253 74.6226C280.837 71.5374 277.841 69.1271 273.976 67.1989Z" fill="url(#paint6_linear_213_5721)"/>
<path d="M327.321 22.3675H300.359C299.296 22.3675 298.426 23.2352 298.426 24.2957V113.476H368.49C369.553 113.476 370.423 112.609 370.423 111.548V91.4946C370.423 90.4341 369.553 89.5664 368.49 89.5664H331.09C330.027 89.5664 329.158 88.6987 329.158 87.6381V24.1993C329.254 23.1388 328.384 22.3675 327.321 22.3675Z" fill="url(#paint7_linear_213_5721)"/>
<path d="M377.091 24.1993V111.452C377.091 112.512 377.961 113.38 379.024 113.38H405.89C406.953 113.38 407.823 112.512 407.823 111.452V24.1993C407.823 23.1388 406.953 22.2711 405.89 22.2711H378.927C377.864 22.3675 377.091 23.1388 377.091 24.1993Z" fill="url(#paint8_linear_213_5721)"/>
<path d="M95.8674 22.3675C94.8043 22.3675 93.9346 23.2352 93.9346 24.2957V72.5015C93.9346 86.0955 97.8002 96.7008 105.628 104.221C113.456 111.741 124.376 115.501 138.389 115.501C152.402 115.501 163.322 111.741 171.15 104.221C178.978 96.7008 182.844 86.0955 182.844 72.5015V24.2957C182.844 23.2352 181.974 22.3675 180.911 22.3675H95.8674Z" fill="url(#paint9_linear_213_5721)"/>
</g>
<path d="M66.0055 4.1457C59.7238 1.34976 52.3791 0 43.9714 0H1.93281C0.869764 0 0 0.867704 0 1.92823V89.1807C0 90.2412 0.869764 91.1089 1.93281 91.1089H28.8955C29.9586 91.1089 30.8283 90.2412 30.8283 89.1807V70.5733C30.8283 69.5128 31.6981 68.645 32.7611 68.645H44.0681C52.4758 68.645 59.8205 67.2953 66.1021 64.4994C72.3837 61.7034 77.2157 57.7505 80.5982 52.5443C83.9806 47.3381 85.7201 41.2642 85.7201 34.3225C85.7201 27.3809 83.9806 21.307 80.5982 16.1007C77.0225 10.8945 72.1904 6.94163 66.0055 4.1457Z" fill="url(#paint10_linear_213_5721)"/>
<path d="M273.976 44.9278C272.623 44.2529 272.526 42.5175 273.782 41.6498C276.392 39.9144 278.518 37.7933 280.064 35.2866C282.19 31.9122 283.253 28.0558 283.253 23.8137C283.253 16.5828 280.161 10.8945 273.976 6.55599C267.694 2.12106 258.513 0 246.337 0H199.466C198.403 0 197.533 0.867704 197.533 1.92823V89.1807C197.533 90.2412 198.403 91.1089 199.466 91.1089H248.946C261.509 91.1089 270.98 88.8915 277.648 84.553C284.22 80.2144 287.602 74.0441 287.602 66.0419C287.602 60.6429 286.152 56.1115 283.157 52.2551C280.837 49.1699 277.841 46.7596 273.976 44.9278Z" fill="url(#paint11_linear_213_5721)"/>
<path d="M327.321 0H300.359C299.296 0 298.426 0.867704 298.426 1.92823V89.1807C298.426 90.2412 299.296 91.1089 300.359 91.1089H368.587C369.65 91.1089 370.52 90.2412 370.52 89.1807V69.1271C370.52 68.0666 369.65 67.1989 368.587 67.1989H331.187C330.124 67.1989 329.254 66.3312 329.254 65.2706V1.92823C329.254 0.867704 328.384 0 327.321 0Z" fill="url(#paint12_linear_213_5721)"/>
<path d="M377.091 1.92823V89.1807C377.091 90.2412 377.961 91.1089 379.024 91.1089H405.89C406.953 91.1089 407.823 90.2412 407.823 89.1807V1.92823C407.823 0.867704 406.953 0 405.89 0H378.927C377.864 0 377.091 0.867704 377.091 1.92823Z" fill="url(#paint13_linear_213_5721)"/>
<path d="M95.8674 0C94.8043 0 93.9346 0.867704 93.9346 1.92823V50.134C93.9346 63.7281 97.8002 74.3333 105.628 81.8534C113.456 89.3735 124.376 93.1336 138.389 93.1336C152.402 93.1336 163.322 89.3735 171.15 81.8534C178.978 74.3333 182.844 63.7281 182.844 50.134V1.92823C182.844 0.867704 181.974 0 180.911 0H95.8674Z" fill="url(#paint14_linear_213_5721)"/>
<path d="M420.579 11.1837C420.579 8.09857 421.642 5.49546 423.865 3.27799C426.088 1.06053 428.697 0 431.79 0C434.882 0 437.492 1.06053 439.714 3.27799C441.937 5.49546 443 8.09857 443 11.1837C443 14.2689 441.937 16.872 439.714 19.0895C437.492 21.307 434.882 22.3675 431.79 22.3675C428.697 22.3675 426.088 21.307 423.865 19.0895C421.739 16.872 420.579 14.2689 420.579 11.1837ZM431.79 21.4034C434.592 21.4034 437.008 20.4393 438.941 18.4146C440.971 16.39 441.937 13.9797 441.937 11.1837C441.937 8.38781 440.971 5.88111 438.941 3.95287C437.008 1.92823 434.592 0.964116 431.79 0.964116C428.987 0.964116 426.571 1.92823 424.542 3.95287C422.609 5.97752 421.546 8.38781 421.546 11.1837C421.546 13.9797 422.512 16.4864 424.542 18.4146C426.571 20.4393 428.987 21.4034 431.79 21.4034ZM436.332 9.1591C436.332 10.7017 435.655 11.8586 434.399 12.5335L436.815 16.872H434.206L432.176 13.0156H431.983H430.533V16.872H428.117V5.49546H431.983C433.336 5.49546 434.399 5.88111 435.172 6.55599C435.945 7.23087 436.332 8.09857 436.332 9.1591ZM431.983 7.71293H430.533V10.8945H431.983C432.563 10.8945 433.046 10.7981 433.433 10.5089C433.819 10.2196 433.916 9.83398 433.916 9.35192C434.012 8.19498 433.336 7.71293 431.983 7.71293Z" fill="url(#paint15_linear_213_5721)"/>
<path d="M0.483202 161.007H20.2945V165.249H12.6599V188.195H8.21444V165.249H0.483202V161.007ZM26.7694 176.53V183.857H38.8495V188.099H22.324V161.007H38.6562V165.249H26.7694V172.288H37.6898V176.53H26.7694ZM46.6774 161.007V183.953H57.791V188.195H42.2319V161.007H46.6774ZM64.2659 176.53V183.857H76.346V188.099H59.7238V161.007H76.0561V165.249H64.2659V172.288H75.1863V176.53H64.2659ZM92.0017 174.119H105.628V175.951C105.628 179.711 104.372 182.7 101.956 185.11C99.5397 187.424 96.2539 188.677 92.2917 188.677C88.1361 188.677 84.6571 187.328 81.8545 184.628C79.1486 181.929 77.7956 178.554 77.7956 174.601C77.7956 170.649 79.1486 167.371 81.8545 164.575C84.5604 161.875 88.0395 160.429 92.0984 160.429C94.611 160.429 96.9304 161.007 99.0565 162.164C101.183 163.321 102.825 164.864 103.985 166.888L100.12 169.106C99.4431 167.756 98.2834 166.696 96.9304 165.924C95.4808 165.153 93.9346 164.767 92.0984 164.767C89.1992 164.767 86.8798 165.732 85.0436 167.563C83.2075 169.492 82.2411 171.805 82.2411 174.505C82.2411 177.301 83.2075 179.615 85.0436 181.447C86.9764 183.278 89.3925 184.243 92.3883 184.243C94.8043 184.243 96.7371 183.664 98.2834 182.604C99.8296 181.447 100.796 180 101.183 178.072H92.0984V174.119H92.0017ZM129.208 188.195H124.28L118.481 178.265H113.166V188.195H108.721V161.007H119.641C122.057 161.007 124.183 161.875 125.826 163.61C127.565 165.249 128.435 167.371 128.435 169.781C128.435 171.516 127.952 173.059 126.889 174.505C125.923 175.951 124.57 177.012 123.023 177.59L129.208 188.195ZM119.641 165.153H113.263V174.216H119.641C120.801 174.216 121.864 173.734 122.637 172.866C123.507 171.998 123.893 170.938 123.893 169.684C123.893 168.431 123.507 167.371 122.637 166.503C121.864 165.635 120.897 165.153 119.641 165.153ZM155.011 188.195H150.179L148.246 182.7H136.65L134.717 188.195H129.885L139.742 161.007H145.154L155.011 188.195ZM142.545 166.214L138.196 178.458H146.797L142.545 166.214ZM178.108 161.007H182.94V188.195H178.495V168.817L170.184 182.507H169.604L161.293 168.817V188.195H156.848V161.007H161.68L169.894 174.601L178.108 161.007Z" fill="url(#paint16_linear_213_5721)"/>
<path d="M9.95397 223C7.73124 223 5.89507 222.518 4.34882 221.554C2.80257 220.59 1.73953 219.144 1.15969 217.408L4.44546 215.48C5.41187 218.083 7.24804 219.336 10.1473 219.336C11.5002 219.336 12.5633 219.047 13.3364 218.565C14.0129 217.987 14.3994 217.312 14.3994 216.348C14.3994 215.48 14.0129 214.709 13.2397 214.227C12.4666 213.744 11.1137 213.166 9.18085 212.588C7.1514 212.009 5.60515 211.334 4.34882 210.466C2.89921 209.406 2.12609 207.863 2.12609 205.839C2.12609 203.814 2.80257 202.175 4.25218 201.018C5.70179 199.861 7.44132 199.186 9.47077 199.186C11.3069 199.186 12.8532 199.668 14.3028 200.536C15.6558 201.404 16.7188 202.657 17.4919 204.296L14.3028 206.128C13.3364 204.007 11.6935 202.946 9.47077 202.946C8.40772 202.946 7.53796 203.236 6.86147 203.718C6.18499 204.2 5.89507 204.971 5.89507 205.839C5.89507 206.706 6.18499 207.381 6.86147 207.863C7.53796 208.345 8.69764 208.827 10.5338 209.406C11.5969 209.792 12.2733 209.984 12.4666 210.081C12.7565 210.177 13.3364 210.37 14.2062 210.756C14.8826 211.045 15.4625 211.334 15.849 211.72C17.5886 213.07 18.3617 214.612 18.1684 216.444C18.1684 218.469 17.3953 220.204 15.9457 221.361C14.3994 222.422 12.37 223 9.95397 223ZM20.3911 214.998V199.668H24.1601V214.709C24.1601 216.155 24.5467 217.215 25.4164 218.083C26.2862 218.854 27.4459 219.336 29.0888 219.336C30.7317 219.336 31.8914 218.951 32.7611 218.083C33.6309 217.312 34.0175 216.155 34.0175 214.709V199.668H37.7864V214.998C37.7864 217.408 37.0133 219.336 35.3704 220.879C33.7275 222.325 31.6981 223 29.0888 223C26.4795 223 24.45 222.325 22.8072 220.879C21.1643 219.336 20.3911 217.408 20.3911 214.998ZM54.9884 210.659C55.9548 211.141 56.8246 211.913 57.3078 212.877C57.8877 213.841 58.1776 214.901 58.1776 216.058C58.1776 217.89 57.5011 219.529 56.1481 220.783C54.7952 222.036 53.1523 222.614 51.2195 222.614H41.5554V199.765H50.6396C52.4758 199.765 54.1187 200.343 55.375 201.597C56.728 202.85 57.3078 204.296 57.3078 206.128C57.4045 207.96 56.5347 209.502 54.9884 210.659ZM50.6396 203.236H45.3244V209.213H50.6396C51.5094 209.213 52.1859 208.924 52.7657 208.345C53.3455 207.767 53.6355 207.092 53.6355 206.224C53.6355 205.357 53.3455 204.682 52.7657 204.103C52.1859 203.525 51.5094 203.236 50.6396 203.236ZM45.3244 219.047H51.4127C52.2825 219.047 53.0556 218.758 53.6355 218.083C54.2153 217.505 54.5052 216.733 54.5052 215.769C54.5052 214.901 54.2153 214.13 53.6355 213.455C53.0556 212.877 52.2825 212.491 51.4127 212.491H45.3244V219.047ZM68.3248 223C66.1021 223 64.2659 222.518 62.7197 221.554C61.1734 220.59 60.1104 219.144 59.5305 217.408L62.8163 215.48C63.6861 218.083 65.6189 219.336 68.5181 219.336C69.8711 219.336 70.9341 219.047 71.7072 218.565C72.3837 217.987 72.7703 217.312 72.7703 216.348C72.7703 215.48 72.3837 214.709 71.6106 214.227C70.8375 213.744 69.4845 213.166 67.5517 212.588C65.5223 212.009 63.976 211.334 62.7197 210.466C61.2701 209.406 60.4969 207.863 60.4969 205.839C60.4969 203.814 61.1734 202.175 62.623 201.018C64.0726 199.861 65.8122 199.186 67.8416 199.186C69.6778 199.186 71.224 199.668 72.6736 200.536C74.0266 201.404 75.0897 202.657 75.8628 204.296L72.6736 206.128C71.7072 204.007 70.0644 202.946 67.8416 202.946C66.7786 202.946 65.9088 203.236 65.2323 203.718C64.5559 204.2 64.2659 204.971 64.2659 205.839C64.2659 206.706 64.5559 207.381 65.2323 207.863C65.9088 208.345 67.0685 208.827 68.9047 209.406C69.9677 209.792 70.6442 209.984 70.8375 210.081C71.1274 210.177 71.7072 210.37 72.577 210.756C73.2535 211.045 73.8333 211.334 74.2199 211.72C75.9594 213.07 76.7325 214.612 76.5393 216.444C76.5393 218.469 75.7661 220.204 74.3165 221.361C72.7703 222.422 70.8375 223 68.3248 223ZM89.5857 223C86.1067 223 83.3041 221.843 80.9847 219.626C78.6654 217.312 77.6023 214.516 77.6023 211.141C77.6023 207.767 78.762 204.971 80.9847 202.657C83.2075 200.343 86.1067 199.186 89.5857 199.186C91.6152 199.186 93.548 199.668 95.3842 200.633C97.1237 201.597 98.4767 202.946 99.5397 204.585L96.2539 206.514C95.6741 205.357 94.7077 204.489 93.548 203.814C92.3883 203.139 91.0353 202.85 89.5857 202.85C87.1697 202.85 85.1403 203.621 83.594 205.164C82.0478 206.706 81.3713 208.635 81.3713 211.045C81.3713 213.455 82.1444 215.383 83.594 216.926C85.1403 218.469 87.1697 219.24 89.5857 219.24C91.0353 219.24 92.3883 218.951 93.548 218.276C94.7077 217.601 95.5774 216.733 96.1573 215.576L99.4431 217.408C98.4767 219.047 97.1237 220.397 95.3842 221.457C93.6446 222.518 91.7118 223 89.5857 223ZM118.964 222.518H114.809L109.977 214.13H105.531V222.518H101.762V199.668H110.943C112.973 199.668 114.712 200.343 116.162 201.789C117.611 203.139 118.288 204.875 118.288 206.996C118.288 208.442 117.901 209.792 117.032 211.045C116.162 212.298 115.099 213.166 113.746 213.648L118.964 222.518ZM110.943 203.236H105.531V210.852H110.943C111.91 210.852 112.779 210.466 113.456 209.695C114.132 208.924 114.519 208.056 114.519 206.996C114.519 205.935 114.132 205.067 113.456 204.296C112.779 203.525 111.91 203.236 110.943 203.236ZM121.091 222.518V199.668H124.86V222.518H121.091ZM128.822 199.668H137.326C139.452 199.668 141.288 200.343 142.738 201.789C144.188 203.236 144.961 204.971 144.961 207.188C144.961 209.31 144.188 211.045 142.738 212.588C141.288 214.034 139.452 214.709 137.326 214.709H132.591V222.518H128.822V199.668ZM132.591 211.141H137.326C138.486 211.141 139.356 210.756 140.032 209.984C140.709 209.213 141.095 208.249 141.095 207.092C141.095 205.935 140.709 204.971 140.032 204.2C139.356 203.428 138.389 203.043 137.326 203.043H132.591V211.141ZM145.541 199.668H162.259V203.236H155.784V222.518H152.016V203.236H145.541V199.668ZM163.902 222.518V199.668H167.671V222.518H163.902ZM190.768 219.529C188.449 221.843 185.646 223 182.361 223C179.075 223 176.176 221.843 173.856 219.529C171.537 217.215 170.377 214.419 170.377 211.045C170.377 207.767 171.537 204.971 173.856 202.657C176.176 200.343 178.978 199.186 182.361 199.186C185.646 199.186 188.449 200.343 190.768 202.657C193.088 204.971 194.247 207.767 194.247 211.045C194.247 214.419 193.088 217.215 190.768 219.529ZM176.466 217.022C178.012 218.565 180.041 219.336 182.264 219.336C184.583 219.336 186.516 218.565 188.062 217.022C189.609 215.48 190.382 213.455 190.382 211.141C190.382 208.827 189.609 206.803 188.062 205.26C186.516 203.718 184.583 202.946 182.264 202.946C179.945 202.946 178.012 203.718 176.466 205.26C174.919 206.803 174.146 208.731 174.146 211.141C174.146 213.455 174.919 215.383 176.466 217.022ZM210.58 215.191V199.668H214.349V222.518H211.353L200.529 206.996V222.518H196.76V199.668H199.756L210.58 215.191ZM225.656 223C223.433 223 221.597 222.518 220.05 221.554C218.504 220.59 217.441 219.144 216.861 217.408L220.147 215.48C221.113 218.083 222.95 219.336 225.849 219.336C227.202 219.336 228.265 219.047 229.038 218.565C229.714 217.987 230.101 217.312 230.101 216.348C230.101 215.48 229.714 214.709 228.941 214.227C228.168 213.744 226.815 213.166 224.882 212.588C222.853 212.009 221.307 211.334 220.05 210.466C218.601 209.406 217.828 207.863 217.828 205.839C217.828 203.814 218.504 202.175 219.954 201.018C221.403 199.861 223.143 199.186 225.172 199.186C227.009 199.186 228.555 199.668 230.004 200.536C231.357 201.404 232.42 202.657 233.194 204.296L230.004 206.128C229.038 204.007 227.395 202.946 225.172 202.946C224.109 202.946 223.24 203.236 222.563 203.718C221.887 204.2 221.597 204.971 221.597 205.839C221.597 206.706 221.887 207.381 222.563 207.863C223.24 208.345 224.399 208.827 226.235 209.406C227.298 209.792 227.975 209.984 228.168 210.081C228.458 210.177 229.038 210.37 229.908 210.756C230.584 211.045 231.164 211.334 231.551 211.72C233.29 213.07 234.063 214.612 233.87 216.444C233.87 218.469 233.097 220.204 231.647 221.361C230.101 222.422 228.168 223 225.656 223ZM251.265 223C249.043 223 247.206 222.518 245.66 221.554C244.114 220.59 243.051 219.144 242.471 217.408L245.757 215.48C246.627 218.083 248.559 219.336 251.459 219.336C252.812 219.336 253.875 219.047 254.648 218.565C255.324 217.987 255.711 217.312 255.711 216.348C255.711 215.48 255.324 214.709 254.551 214.227C253.778 213.744 252.425 213.166 250.492 212.588C248.463 212.009 246.916 211.334 245.66 210.466C244.211 209.406 243.437 207.863 243.437 205.839C243.437 203.814 244.114 202.175 245.563 201.018C247.013 199.861 248.753 199.186 250.782 199.186C252.618 199.186 254.164 199.668 255.614 200.536C256.967 201.404 258.03 202.657 258.803 204.296L255.614 206.128C254.648 204.007 253.005 202.946 250.782 202.946C249.719 202.946 248.849 203.236 248.173 203.718C247.496 204.2 247.206 204.971 247.206 205.839C247.206 206.706 247.496 207.381 248.173 207.863C248.849 208.345 250.009 208.827 251.845 209.406C252.908 209.792 253.585 209.984 253.778 210.081C254.068 210.177 254.648 210.37 255.517 210.756C256.194 211.045 256.774 211.334 257.16 211.72C258.9 213.07 259.673 214.612 259.48 216.444C259.48 218.469 258.707 220.204 257.257 221.361C255.711 222.422 253.778 223 251.265 223ZM280.837 219.529C278.518 221.843 275.715 223 272.43 223C269.144 223 266.245 221.843 263.925 219.529C261.606 217.215 260.446 214.419 260.446 211.045C260.446 207.767 261.606 204.971 263.925 202.657C266.245 200.343 269.047 199.186 272.43 199.186C275.812 199.186 278.518 200.343 280.837 202.657C283.157 204.971 284.316 207.767 284.316 211.045C284.316 214.419 283.157 217.215 280.837 219.529ZM266.631 217.022C268.274 218.565 270.207 219.336 272.43 219.336C274.749 219.336 276.682 218.565 278.228 217.022C279.774 215.48 280.547 213.455 280.547 211.141C280.547 208.827 279.774 206.803 278.228 205.26C276.682 203.718 274.749 202.946 272.43 202.946C270.11 202.946 268.177 203.718 266.631 205.26C265.085 206.803 264.312 208.731 264.312 211.141C264.312 213.455 265.085 215.383 266.631 217.022ZM290.791 199.668V218.951H300.165V222.518H287.022V199.668H290.791ZM301.228 214.998V199.668H304.997V214.709C304.997 216.155 305.384 217.215 306.254 218.083C307.123 218.854 308.283 219.336 309.926 219.336C311.569 219.336 312.729 218.951 313.598 218.083C314.468 217.312 314.855 216.155 314.855 214.709V199.668H318.624V214.998C318.624 217.408 317.851 219.336 316.208 220.879C314.565 222.325 312.535 223 309.926 223C307.317 223 305.287 222.325 303.644 220.879C302.098 219.336 301.228 217.408 301.228 214.998ZM320.17 199.668H336.889V203.236H330.414V222.518H326.645V203.236H320.17V199.668ZM338.532 222.518V199.668H342.301V222.518H338.532ZM365.398 219.529C363.078 221.843 360.276 223 356.99 223C353.704 223 350.805 221.843 348.486 219.529C346.166 217.215 345.007 214.419 345.007 211.045C345.007 207.767 346.166 204.971 348.486 202.657C350.805 200.343 353.608 199.186 356.99 199.186C360.276 199.186 363.078 200.343 365.398 202.657C367.717 204.971 368.877 207.767 368.877 211.045C368.877 214.419 367.717 217.215 365.398 219.529ZM351.192 217.022C352.738 218.565 354.767 219.336 356.99 219.336C359.309 219.336 361.242 218.565 362.788 217.022C364.335 215.48 365.108 213.455 365.108 211.141C365.108 208.827 364.335 206.803 362.788 205.26C361.242 203.718 359.309 202.946 356.99 202.946C354.671 202.946 352.738 203.718 351.192 205.26C349.645 206.803 348.872 208.731 348.872 211.141C348.776 213.455 349.549 215.383 351.192 217.022ZM385.306 215.191V199.668H389.075V222.518H386.079L375.255 206.996V222.518H371.486V199.668H374.482L385.306 215.191ZM400.285 223C398.062 223 396.226 222.518 394.68 221.554C393.134 220.59 392.07 219.144 391.491 217.408L394.776 215.48C395.743 218.083 397.579 219.336 400.478 219.336C401.831 219.336 402.894 219.047 403.667 218.565C404.344 217.987 404.73 217.312 404.73 216.348C404.73 215.48 404.344 214.709 403.571 214.227C402.798 213.744 401.445 213.166 399.512 212.588C397.482 212.009 395.936 211.334 394.68 210.466C393.23 209.406 392.457 207.863 392.457 205.839C392.457 203.814 393.134 202.175 394.583 201.018C396.033 199.861 397.772 199.186 399.802 199.186C401.638 199.186 403.184 199.668 404.634 200.536C405.987 201.404 407.05 202.657 407.823 204.296L404.634 206.128C403.667 204.007 402.024 202.946 399.802 202.946C398.739 202.946 397.869 203.236 397.192 203.718C396.516 204.2 396.226 204.971 396.226 205.839C396.226 206.706 396.516 207.381 397.192 207.863C397.869 208.345 399.029 208.827 400.865 209.406C401.928 209.792 402.604 209.984 402.798 210.081C403.087 210.177 403.667 210.37 404.537 210.756C405.214 211.045 405.793 211.334 406.18 211.72C407.919 213.07 408.693 214.612 408.499 216.444C408.499 218.469 407.726 220.204 406.277 221.361C404.73 222.422 402.798 223 400.285 223Z" fill="#B3B3B3"/>
</g>
<defs>
<linearGradient id="paint0_linear_213_5721" x1="-5.6812" y1="51.475" x2="60.641" y2="117.955" gradientUnits="userSpaceOnUse">
<stop stop-color="#E9E9E9"/>
<stop offset="1" stop-color="#D4D4D4"/>
</linearGradient>
<linearGradient id="paint1_linear_213_5721" x1="193.227" y1="50.1844" x2="275.21" y2="132.362" gradientUnits="userSpaceOnUse">
<stop stop-color="#C3C3C3"/>
<stop offset="1" stop-color="#DBDBDB"/>
</linearGradient>
<linearGradient id="paint2_linear_213_5721" x1="310.83" y1="101.031" x2="357.362" y2="147.673" gradientUnits="userSpaceOnUse">
<stop stop-color="#DBDBDB"/>
<stop offset="1" stop-color="white"/>
</linearGradient>
<linearGradient id="paint3_linear_213_5721" x1="362.48" y1="60.3439" x2="422.25" y2="120.256" gradientUnits="userSpaceOnUse">
<stop stop-color="white"/>
<stop offset="1" stop-color="white"/>
</linearGradient>
<linearGradient id="paint4_linear_213_5721" x1="98.9185" y1="40.8823" x2="177.782" y2="119.933" gradientUnits="userSpaceOnUse">
<stop stop-color="#D6D6D6"/>
<stop offset="1" stop-color="#BFBFBF"/>
</linearGradient>
<linearGradient id="paint5_linear_213_5721" x1="-5.6812" y1="29.1078" x2="60.641" y2="95.5875" gradientUnits="userSpaceOnUse">
<stop stop-color="#E9E9E9"/>
<stop offset="1" stop-color="#D4D4D4"/>
</linearGradient>
<linearGradient id="paint6_linear_213_5721" x1="193.227" y1="27.8172" x2="275.21" y2="109.995" gradientUnits="userSpaceOnUse">
<stop stop-color="#C3C3C3"/>
<stop offset="1" stop-color="#DBDBDB"/>
</linearGradient>
<linearGradient id="paint7_linear_213_5721" x1="283.594" y1="38.253" x2="363.917" y2="118.767" gradientUnits="userSpaceOnUse">
<stop stop-color="#DBDBDB"/>
<stop offset="1" stop-color="white"/>
</linearGradient>
<linearGradient id="paint8_linear_213_5721" x1="362.48" y1="37.9767" x2="422.25" y2="97.8893" gradientUnits="userSpaceOnUse">
<stop stop-color="white"/>
<stop offset="1" stop-color="white"/>
</linearGradient>
<linearGradient id="paint9_linear_213_5721" x1="98.9185" y1="18.5151" x2="177.782" y2="97.5657" gradientUnits="userSpaceOnUse">
<stop stop-color="#D6D6D6"/>
<stop offset="1" stop-color="#BFBFBF"/>
</linearGradient>
<linearGradient id="paint10_linear_213_5721" x1="-5.6812" y1="6.77311" x2="60.641" y2="73.2529" gradientUnits="userSpaceOnUse">
<stop stop-color="#E9E9E9"/>
<stop offset="1" stop-color="#D4D4D4"/>
</linearGradient>
<linearGradient id="paint11_linear_213_5721" x1="193.227" y1="5.48254" x2="275.21" y2="87.6606" gradientUnits="userSpaceOnUse">
<stop stop-color="#C3C3C3"/>
<stop offset="1" stop-color="#DBDBDB"/>
</linearGradient>
<linearGradient id="paint12_linear_213_5721" x1="283.87" y1="15.6421" x2="364.194" y2="96.1559" gradientUnits="userSpaceOnUse">
<stop stop-color="#DBDBDB"/>
<stop offset="1" stop-color="white"/>
</linearGradient>
<linearGradient id="paint13_linear_213_5721" x1="362.48" y1="15.6421" x2="422.25" y2="75.5546" gradientUnits="userSpaceOnUse">
<stop stop-color="white"/>
<stop offset="1" stop-color="white"/>
</linearGradient>
<linearGradient id="paint14_linear_213_5721" x1="98.9185" y1="-3.81954" x2="177.782" y2="75.2311" gradientUnits="userSpaceOnUse">
<stop stop-color="#D6D6D6"/>
<stop offset="1" stop-color="#BFBFBF"/>
</linearGradient>
<linearGradient id="paint15_linear_213_5721" x1="420.611" y1="11.1674" x2="442.999" y2="11.1674" gradientUnits="userSpaceOnUse">
<stop stop-color="white"/>
<stop offset="1" stop-color="white"/>
</linearGradient>
<linearGradient id="paint16_linear_213_5721" x1="0.508715" y1="174.573" x2="182.906" y2="174.573" gradientUnits="userSpaceOnUse">
<stop stop-color="#E9E9E9"/>
<stop offset="1" stop-color="#D4D4D4"/>
</linearGradient>
<clipPath id="clip0_213_5721">
<rect width="443" height="223" fill="white"/>
</clipPath>
</defs>
</svg>
