<svg width="773" height="189" viewBox="0 0 773 189" fill="none" xmlns="http://www.w3.org/2000/svg">
<path d="M165.292 10.4019V178.598C165.292 180.364 163.916 181.738 162.147 181.738H104.953C103.185 181.738 101.809 180.364 101.809 178.598V124.43C101.809 122.664 100.433 121.29 98.6641 121.29H68.0036C66.2347 121.29 64.8589 122.664 64.8589 124.43V178.598C64.8589 180.364 63.4831 181.738 61.7142 181.738H4.12739C2.35851 181.738 0.982712 180.364 0.982712 178.598V10.4019C0.982712 8.63553 2.35851 7.2617 4.12739 7.2617H61.3211C63.09 7.2617 64.4658 8.63553 64.4658 10.4019V65.7477C64.4658 67.514 65.8416 68.8879 67.6105 68.8879H98.0745C99.8434 68.8879 101.219 67.514 101.219 65.7477V10.4019C101.219 8.63553 102.595 7.2617 104.364 7.2617H161.558C163.916 7.2617 165.292 8.63553 165.292 10.4019ZM302.282 7.2617H190.253C188.484 7.2617 187.108 8.63553 187.108 10.4019V178.598C187.108 180.364 188.484 181.738 190.253 181.738H302.282C304.051 181.738 305.426 180.364 305.426 178.598V139.346C305.426 137.579 304.051 136.206 302.282 136.206H253.932C252.164 136.206 250.788 134.832 250.788 133.065V120.112C250.788 118.346 252.164 116.972 253.932 116.972H302.282C304.051 116.972 305.426 115.598 305.426 113.832V76.7383C305.426 74.972 304.051 73.5981 302.282 73.5981H253.932C252.164 73.5981 250.788 72.2243 250.788 70.458V56.1309C250.788 54.3645 252.164 52.9907 253.932 52.9907H302.282C304.051 52.9907 305.426 51.6168 305.426 49.8505V10.5981C305.623 8.63553 304.051 7.2617 302.282 7.2617ZM441.434 128.159H393.674C391.905 128.159 390.529 126.785 390.529 125.019V10.4019C390.529 8.63553 389.153 7.2617 387.384 7.2617H330.191C328.422 7.2617 327.046 8.63553 327.046 10.4019V178.598C327.046 180.364 328.422 181.738 330.191 181.738H441.63C443.399 181.738 444.775 180.364 444.775 178.598V131.495C444.578 129.729 443.202 128.159 441.434 128.159ZM569.579 128.159H521.819C520.05 128.159 518.675 126.785 518.675 125.019V10.4019C518.675 8.63553 517.299 7.2617 515.53 7.2617H458.336C456.567 7.2617 455.192 8.63553 455.192 10.4019V178.598C455.192 180.364 456.567 181.738 458.336 181.738H569.776C571.544 181.738 572.92 180.364 572.92 178.598V131.495C572.724 129.729 571.348 128.159 569.579 128.159ZM744.895 28.2617C726.813 10.0094 702.638 0.981323 672.567 0.981323C642.496 0.981323 618.321 10.0094 600.24 28.2617C582.158 46.514 573.117 68.4953 573.117 94.4019C573.117 120.308 582.158 142.486 600.24 160.738C618.321 178.991 642.496 188.019 672.567 188.019C702.638 188.019 726.813 178.991 744.895 160.738C762.976 142.486 772.017 120.505 772.017 94.4019C772.017 68.2991 762.976 46.514 744.895 28.2617Z" stroke="white" stroke-miterlimit="10"/>
</svg>
